<svg width="24" height="25" viewBox="0 0 24 25" fill="none" xmlns="http://www.w3.org/2000/svg">
<path d="M22.6499 14.4029L11.9999 22.1429L1.3499 14.4029C1.20713 14.2979 1.10122 14.1504 1.04733 13.9816C0.99345 13.8128 0.994348 13.6312 1.0499 13.4629L2.2699 9.6829L4.7099 2.1729C4.73357 2.11171 4.77124 2.05691 4.8199 2.0129C4.89914 1.94052 5.00258 1.90039 5.1099 1.90039C5.21722 1.90039 5.32066 1.94052 5.3999 2.0129C5.45128 2.06257 5.48914 2.12452 5.5099 2.1929L7.9499 9.6829H16.0499L18.4899 2.1729C18.5136 2.11171 18.5512 2.05691 18.5999 2.0129C18.6791 1.94052 18.7826 1.90039 18.8899 1.90039C18.9972 1.90039 19.1007 1.94052 19.1799 2.0129C19.2313 2.06257 19.2691 2.12452 19.2899 2.1929L21.7299 9.7029L22.9999 13.4629C23.0504 13.6364 23.0437 13.8215 22.9806 13.9909C22.9176 14.1602 22.8016 14.3047 22.6499 14.4029V14.4029Z" stroke="white" stroke-linecap="round" stroke-linejoin="round"/>
</svg>
