<svg width="453" height="87" viewBox="0 0 453 87" fill="none" xmlns="http://www.w3.org/2000/svg">
<rect width="3" height="87" fill="url(#paint0_linear_1_626)"/>
<path d="M21.4034 9.36364H20.4489L19.8011 13.2443H20.7557L21.4034 9.36364ZM24.0682 9.36364H23.1136L22.4659 13.2443H23.4205L24.0682 9.36364ZM32.6989 12.3352H33.733C33.9261 10.5057 32.642 9.19886 30.4716 9.19886C28.3182 9.19886 26.4659 10.4716 26.142 12.3636C25.8977 13.858 26.7955 14.7898 28.5284 15.3239L29.858 15.733C31.2386 16.1534 32.142 16.7045 31.9375 17.892C31.7102 19.2898 30.2955 20.2273 28.5511 20.2273C26.983 20.2273 25.8693 19.4716 25.9886 18.0909H24.8977C24.7216 19.9318 26.017 21.1989 28.392 21.1989C30.9432 21.1989 32.6477 19.7955 32.9659 17.9091C33.2898 15.9773 31.7273 15.2045 30.3295 14.7898L29.1534 14.4375C28.0852 14.1193 26.983 13.5455 27.1875 12.3182C27.392 11.0682 28.6705 10.1534 30.2898 10.1534C31.8352 10.1534 32.75 10.9716 32.6989 12.3352ZM34.8068 21H35.8239L37.2784 12.2727H36.2614L34.8068 21ZM37.1364 10.7557C37.5455 10.7557 37.892 10.4318 37.9034 10.0455C37.9148 9.63636 37.5739 9.30114 37.1534 9.30114C36.7443 9.30114 36.3977 9.625 36.3864 10.0114C36.375 10.4205 36.7102 10.7557 37.1364 10.7557ZM38.4986 21H39.5099L40.4418 15.4091C40.6634 14.0511 41.7486 13.0852 42.9588 13.0852C44.1577 13.0852 44.6918 13.8807 44.5043 15.0625L43.5099 21H44.544L45.5043 15.2557C45.7088 13.9943 46.6236 13.0852 47.9588 13.0852C49.1122 13.0852 49.7372 13.7727 49.5213 15.1534L48.544 21H49.5554L50.5327 15.1534C50.8622 13.2045 50.0213 12.1591 48.4077 12.1591C47.1349 12.1591 46.1009 12.7727 45.5554 13.7443H45.4815C45.2543 12.7557 44.5895 12.1591 43.3906 12.1591C42.2486 12.1591 41.3054 12.7102 40.7997 13.6136H40.7088L40.9361 12.2727H39.9531L38.4986 21ZM57.2784 12.2727H55.3352L55.5114 11.2045C55.6705 10.2898 56.2557 9.77841 57.1307 9.77841C57.4659 9.77841 57.6534 9.85795 57.8068 9.90341L58.2386 9.01705C58.0511 8.93182 57.733 8.82386 57.1989 8.82386C56.0057 8.82386 54.7614 9.58523 54.5398 10.9943L54.3295 12.2727H52.9886L52.8466 13.1534H54.1818L52.875 21H53.8864L55.1875 13.1534H57.1307L57.2784 12.2727ZM60.9205 21.1818C63.1477 21.1818 64.9943 19.3693 65.4261 16.75C65.8636 14.0398 64.5795 12.1534 62.2784 12.1534C60.0568 12.1534 58.2102 13.9602 57.7784 16.5966C57.3352 19.3011 58.625 21.1818 60.9205 21.1818ZM60.9375 20.2557C59.1648 20.2557 58.4432 18.6648 58.7614 16.75C59.0852 14.7557 60.4205 13.0739 62.267 13.0739C64.0398 13.0739 64.7557 14.6818 64.4432 16.5966C64.1193 18.6023 62.7898 20.2557 60.9375 20.2557ZM66.9361 21H67.9474L68.8793 15.3636C69.1009 14.0682 70.2429 13.1307 71.6065 13.1307C71.8793 13.1307 72.1236 13.1761 72.2145 13.1875L72.3906 12.1591C72.2543 12.142 72.027 12.142 71.8565 12.142C70.7599 12.142 69.7088 12.733 69.2202 13.6136H69.1463L69.3736 12.2727H68.3906L66.9361 21ZM72.6548 21H73.6662L74.598 15.4091C74.8196 14.0511 75.9048 13.0852 77.1151 13.0852C78.3139 13.0852 78.848 13.8807 78.6605 15.0625L77.6662 21H78.7003L79.6605 15.2557C79.8651 13.9943 80.7798 13.0852 82.1151 13.0852C83.2685 13.0852 83.8935 13.7727 83.6776 15.1534L82.7003 21H83.7116L84.6889 15.1534C85.0185 13.2045 84.1776 12.1591 82.5639 12.1591C81.2912 12.1591 80.2571 12.7727 79.7116 13.7443H79.6378C79.4105 12.7557 78.7457 12.1591 77.5469 12.1591C76.4048 12.1591 75.4616 12.7102 74.956 13.6136H74.8651L75.0923 12.2727H74.1094L72.6548 21ZM90.9006 21H91.9176L93.3722 12.2727H92.3551L90.9006 21ZM93.2301 10.7557C93.6392 10.7557 93.9858 10.4318 93.9972 10.0455C94.0085 9.63636 93.6676 9.30114 93.2472 9.30114C92.8381 9.30114 92.4915 9.625 92.4801 10.0114C92.4688 10.4205 92.804 10.7557 93.2301 10.7557ZM101.592 14.1875C101.371 12.9261 100.57 12.1534 98.9616 12.1534C97.206 12.1534 95.7628 13.1477 95.5241 14.5852C95.3253 15.7557 95.9162 16.5511 97.3764 16.9261L98.7344 17.267C99.6662 17.4943 100.047 17.9659 99.9219 18.6761C99.7798 19.5795 98.7798 20.2727 97.4332 20.2727C96.2514 20.2727 95.5923 19.733 95.5298 18.7045L94.5128 18.9318C94.581 20.3864 95.6094 21.1818 97.3253 21.1818C99.2457 21.1818 100.734 20.1307 100.979 18.6591C101.172 17.483 100.57 16.7045 99.1605 16.3409L97.8878 16.017C96.8537 15.75 96.4276 15.3068 96.5526 14.5682C96.6946 13.6818 97.6435 13.0455 98.831 13.0455C100.007 13.0455 100.467 13.6534 100.621 14.4375L101.592 14.1875ZM113.773 24.2727L115.75 12.2727H114.767L114.489 13.9375H114.364C114.142 13.1534 113.602 12.1534 111.994 12.1534C109.835 12.1534 108.091 13.9602 107.642 16.6591C107.193 19.3636 108.347 21.1818 110.483 21.1818C112.068 21.1818 112.977 20.1818 113.466 19.3807H113.557L112.756 24.2727H113.773ZM114.028 16.642C113.67 18.75 112.466 20.2557 110.778 20.2557C109.04 20.2557 108.33 18.6761 108.665 16.642C109.006 14.6307 110.17 13.0739 111.932 13.0739C113.636 13.0739 114.381 14.5511 114.028 16.642ZM122.97 17.6648C122.703 19.267 121.362 20.1307 120.18 20.1307C118.925 20.1307 118.192 19.2273 118.408 17.8636L119.339 12.2727H118.328L117.379 17.9261C117.038 19.9943 118.044 21.1136 119.72 21.1136C120.999 21.1136 122.038 20.4489 122.584 19.5511H122.658L122.419 21H123.43L124.885 12.2727H123.874L122.97 17.6648ZM126.119 21H127.136L128.591 12.2727H127.574L126.119 21ZM128.449 10.7557C128.858 10.7557 129.205 10.4318 129.216 10.0455C129.227 9.63636 128.886 9.30114 128.466 9.30114C128.057 9.30114 127.71 9.625 127.699 10.0114C127.688 10.4205 128.023 10.7557 128.449 10.7557ZM133.197 21.1818C135.01 21.1818 136.47 20.0398 136.982 18.4545H135.959C135.533 19.5625 134.499 20.2557 133.334 20.2557C131.618 20.2557 130.743 18.767 131.107 16.642C131.447 14.5284 132.868 13.0739 134.561 13.0739C135.8 13.0739 136.493 13.858 136.544 14.8636H137.567C137.595 13.2443 136.43 12.1534 134.68 12.1534C132.396 12.1534 130.516 14.0455 130.089 16.6761C129.658 19.2727 130.839 21.1818 133.197 21.1818ZM138.717 21H139.729L140.291 17.6193L141.456 16.6761L144.172 21H145.45L142.314 16.0227L146.678 12.2727H145.382L140.615 16.3693H140.496L141.661 9.36364H140.649L138.717 21ZM156.516 12.2727H154.663L155.01 10.1818H153.993L153.646 12.2727H152.351L152.203 13.1534H153.504L152.544 18.9602C152.311 20.3864 153.305 21.1307 154.419 21.1307C154.839 21.1307 155.135 21.0511 155.357 20.9773L155.283 20.0625C155.129 20.0966 154.947 20.142 154.68 20.142C153.993 20.142 153.408 19.8182 153.589 18.7216L154.516 13.1534H156.374L156.516 12.2727ZM160.702 21.1818C162.929 21.1818 164.776 19.3693 165.207 16.75C165.645 14.0398 164.361 12.1534 162.06 12.1534C159.838 12.1534 157.991 13.9602 157.56 16.5966C157.116 19.3011 158.406 21.1818 160.702 21.1818ZM160.719 20.2557C158.946 20.2557 158.224 18.6648 158.543 16.75C158.866 14.7557 160.202 13.0739 162.048 13.0739C163.821 13.0739 164.537 14.6818 164.224 16.5966C163.901 18.6023 162.571 20.2557 160.719 20.2557ZM171.229 21H172.246L173.7 12.2727H172.683L171.229 21ZM173.558 10.7557C173.967 10.7557 174.314 10.4318 174.325 10.0455C174.337 9.63636 173.996 9.30114 173.575 9.30114C173.166 9.30114 172.82 9.625 172.808 10.0114C172.797 10.4205 173.132 10.7557 173.558 10.7557ZM178.057 21.1818C179.636 21.1818 180.545 20.1761 181.034 19.3807H181.153L180.881 21H181.864L183.795 9.36364H182.784L182.023 13.9375H181.932C181.716 13.1534 181.159 12.1534 179.557 12.1534C177.409 12.1534 175.653 13.9716 175.205 16.6591C174.761 19.3693 175.903 21.1818 178.057 21.1818ZM178.273 20.2557C176.534 20.2557 175.886 18.6761 176.227 16.642C176.557 14.6307 177.75 13.0739 179.5 13.0739C181.205 13.0739 181.938 14.5511 181.591 16.642C181.239 18.75 179.966 20.2557 178.273 20.2557ZM188.254 21.1818C190.01 21.1818 191.334 20.233 191.913 19.1364L191.01 18.8239C190.544 19.608 189.646 20.2557 188.396 20.2557C186.544 20.2557 185.652 19.125 185.993 16.9375H192.499L192.578 16.4375C193.067 13.5227 191.493 12.1534 189.601 12.1534C187.339 12.1534 185.464 14.0455 185.027 16.6875C184.584 19.3352 185.811 21.1818 188.254 21.1818ZM186.146 16.0455C186.504 14.4943 187.919 13.0739 189.464 13.0739C191.033 13.0739 191.896 14.3636 191.612 16.0455H186.146ZM195.96 15.5455C196.227 14.0227 197.386 13.0852 198.761 13.0852C200.114 13.0852 200.801 13.983 200.568 15.4091L199.636 21H200.648L201.597 15.3466C201.938 13.2784 200.915 12.1591 199.165 12.1591C197.886 12.1591 196.892 12.75 196.347 13.642H196.256L196.483 12.2727H195.5L194.045 21H195.057L195.96 15.5455ZM208.203 12.2727H206.351L206.697 10.1818H205.68L205.334 12.2727H204.038L203.891 13.1534H205.192L204.232 18.9602C203.999 20.3864 204.993 21.1307 206.107 21.1307C206.527 21.1307 206.822 21.0511 207.044 20.9773L206.97 20.0625C206.817 20.0966 206.635 20.142 206.368 20.142C205.68 20.142 205.095 19.8182 205.277 18.7216L206.203 13.1534H208.061L208.203 12.2727ZM209.057 21H210.074L211.528 12.2727H210.511L209.057 21ZM211.386 10.7557C211.795 10.7557 212.142 10.4318 212.153 10.0455C212.165 9.63636 211.824 9.30114 211.403 9.30114C210.994 9.30114 210.648 9.625 210.636 10.0114C210.625 10.4205 210.96 10.7557 211.386 10.7557ZM217.794 12.2727H215.851L216.027 11.2045C216.186 10.2898 216.771 9.77841 217.646 9.77841C217.982 9.77841 218.169 9.85795 218.322 9.90341L218.754 9.01705C218.567 8.93182 218.249 8.82386 217.714 8.82386C216.521 8.82386 215.277 9.58523 215.055 10.9943L214.845 12.2727H213.504L213.362 13.1534H214.697L213.391 21H214.402L215.703 13.1534H217.646L217.794 12.2727ZM218.528 24.2727C219.585 24.2727 220.506 23.6705 221.199 22.3693L226.568 12.2727H225.426L221.602 19.6818H221.528L220.165 12.2727H219.114L220.841 21.0455L220.364 21.9318C219.653 23.2443 218.96 23.5284 218.006 23.1989L217.58 24.0909C217.767 24.1875 218.125 24.2727 218.528 24.2727ZM234.536 9.36364H233.524L231.592 21H232.604L234.536 9.36364ZM237.695 21.1989C239.149 21.1989 240.172 20.392 240.655 19.6193H240.717L240.484 21H241.496L242.484 15.0739C242.871 12.733 241.212 12.1534 239.876 12.1534C238.541 12.1534 237.064 12.6818 236.246 14.108L237.143 14.4545C237.587 13.7102 238.541 13.0625 239.803 13.0625C241.121 13.0625 241.678 13.7955 241.484 14.983L241.45 15.1875C241.337 15.8409 240.513 15.858 239.03 16.0398C237.013 16.2784 235.541 16.8352 235.246 18.5625C234.984 20.2443 236.109 21.1989 237.695 21.1989ZM237.95 20.2727C236.808 20.2727 236.087 19.6648 236.263 18.608C236.439 17.5511 237.382 17.108 238.893 16.9261C239.604 16.8409 240.905 16.6818 241.246 16.392L241.036 17.6534C240.803 19.0852 239.564 20.2727 237.95 20.2727ZM244.186 21H245.197L246.129 15.3636C246.351 14.0682 247.493 13.1307 248.857 13.1307C249.129 13.1307 249.374 13.1761 249.464 13.1875L249.641 12.1591C249.504 12.142 249.277 12.142 249.107 12.142C248.01 12.142 246.959 12.733 246.47 13.6136H246.396L246.624 12.2727H245.641L244.186 21ZM252.423 24.4545C254.486 24.4545 256.173 23.4489 256.548 21.2273L258.026 12.2727H257.037L256.764 13.9375H256.662C256.435 13.1534 255.878 12.1534 254.276 12.1534C252.116 12.1534 250.366 13.9602 249.935 16.6136C249.486 19.2898 250.719 20.9091 252.81 20.9091C254.378 20.9091 255.298 20 255.764 19.1989H255.855L255.548 21.1648C255.276 22.7898 254.071 23.5455 252.531 23.5455C251.026 23.5455 250.463 22.8295 250.207 22.1648L249.287 22.7045C249.639 23.6989 250.634 24.4545 252.423 24.4545ZM253.037 19.983C251.298 19.983 250.616 18.5966 250.946 16.5966C251.276 14.6307 252.446 13.0739 254.207 13.0739C255.912 13.0739 256.651 14.5511 256.31 16.5966C255.963 18.7045 254.713 19.983 253.037 19.983ZM262.754 21.1818C264.51 21.1818 265.834 20.233 266.413 19.1364L265.51 18.8239C265.044 19.608 264.146 20.2557 262.896 20.2557C261.044 20.2557 260.152 19.125 260.493 16.9375H266.999L267.078 16.4375C267.567 13.5227 265.993 12.1534 264.101 12.1534C261.839 12.1534 259.964 14.0455 259.527 16.6875C259.084 19.3352 260.311 21.1818 262.754 21.1818ZM260.646 16.0455C261.004 14.4943 262.419 13.0739 263.964 13.0739C265.533 13.0739 266.396 14.3636 266.112 16.0455H260.646ZM268.545 21H269.557L270.489 15.3636C270.71 14.0682 271.852 13.1307 273.216 13.1307C273.489 13.1307 273.733 13.1761 273.824 13.1875L274 12.1591C273.864 12.142 273.636 12.142 273.466 12.142C272.369 12.142 271.318 12.733 270.83 13.6136H270.756L270.983 12.2727H270L268.545 21ZM278.202 24.2727H279.219L280.037 19.3807H280.128C280.355 20.1818 280.929 21.1818 282.514 21.1818C284.651 21.1818 286.406 19.3636 286.855 16.6591C287.298 13.9602 286.156 12.1534 283.997 12.1534C282.389 12.1534 281.514 13.1534 281.037 13.9375H280.912L281.185 12.2727H280.202L278.202 24.2727ZM280.474 16.642C280.815 14.5511 282.048 13.0739 283.753 13.0739C285.514 13.0739 286.162 14.6307 285.838 16.642C285.497 18.6761 284.264 20.2557 282.526 20.2557C280.838 20.2557 280.134 18.75 280.474 16.642ZM288.342 21H289.354L290.286 15.3636C290.507 14.0682 291.649 13.1307 293.013 13.1307C293.286 13.1307 293.53 13.1761 293.621 13.1875L293.797 12.1591C293.661 12.142 293.433 12.142 293.263 12.142C292.166 12.142 291.115 12.733 290.626 13.6136H290.553L290.78 12.2727H289.797L288.342 21ZM297.233 21.1818C299.46 21.1818 301.307 19.3693 301.739 16.75C302.176 14.0398 300.892 12.1534 298.591 12.1534C296.369 12.1534 294.523 13.9602 294.091 16.5966C293.648 19.3011 294.938 21.1818 297.233 21.1818ZM297.25 20.2557C295.477 20.2557 294.756 18.6648 295.074 16.75C295.398 14.7557 296.733 13.0739 298.58 13.0739C300.352 13.0739 301.068 14.6818 300.756 16.5966C300.432 18.6023 299.102 20.2557 297.25 20.2557ZM303.459 21H304.442L304.714 19.3807H304.839C305.067 20.1818 305.635 21.1818 307.226 21.1818C309.368 21.1818 311.118 19.3636 311.567 16.6591C312.01 13.9716 310.862 12.1534 308.709 12.1534C307.112 12.1534 306.214 13.1534 305.749 13.9375H305.658L306.408 9.36364H305.391L303.459 21ZM305.186 16.642C305.527 14.5511 306.76 13.0739 308.464 13.0739C310.214 13.0739 310.874 14.6307 310.55 16.642C310.209 18.6761 308.976 20.2557 307.237 20.2557C305.544 20.2557 304.845 18.75 305.186 16.642ZM316.004 9.36364H314.993L313.061 21H314.072L316.004 9.36364ZM320.254 21.1818C322.01 21.1818 323.334 20.233 323.913 19.1364L323.01 18.8239C322.544 19.608 321.646 20.2557 320.396 20.2557C318.544 20.2557 317.652 19.125 317.993 16.9375H324.499L324.578 16.4375C325.067 13.5227 323.493 12.1534 321.601 12.1534C319.339 12.1534 317.464 14.0455 317.027 16.6875C316.584 19.3352 317.811 21.1818 320.254 21.1818ZM318.146 16.0455C318.504 14.4943 319.919 13.0739 321.464 13.0739C323.033 13.0739 323.896 14.3636 323.612 16.0455H318.146ZM326.045 21H327.057L327.989 15.4091C328.21 14.0511 329.295 13.0852 330.506 13.0852C331.705 13.0852 332.239 13.8807 332.051 15.0625L331.057 21H332.091L333.051 15.2557C333.256 13.9943 334.17 13.0852 335.506 13.0852C336.659 13.0852 337.284 13.7727 337.068 15.1534L336.091 21H337.102L338.08 15.1534C338.409 13.2045 337.568 12.1591 335.955 12.1591C334.682 12.1591 333.648 12.7727 333.102 13.7443H333.028C332.801 12.7557 332.136 12.1591 330.938 12.1591C329.795 12.1591 328.852 12.7102 328.347 13.6136H328.256L328.483 12.2727H327.5L326.045 21ZM346.217 21H347.263L350.513 13.858H350.621L351.507 21H352.553L356.643 12.2727H355.564L352.303 19.4545H352.223L351.376 12.2727H350.303L347.041 19.4716H346.967L346.098 12.2727H345.036L346.217 21ZM357.166 21H358.183L359.638 12.2727H358.621L357.166 21ZM359.496 10.7557C359.905 10.7557 360.251 10.4318 360.263 10.0455C360.274 9.63636 359.933 9.30114 359.513 9.30114C359.104 9.30114 358.757 9.625 358.746 10.0114C358.734 10.4205 359.07 10.7557 359.496 10.7557ZM365.75 12.2727H363.898L364.244 10.1818H363.227L362.881 12.2727H361.585L361.438 13.1534H362.739L361.778 18.9602C361.545 20.3864 362.54 21.1307 363.653 21.1307C364.074 21.1307 364.369 21.0511 364.591 20.9773L364.517 20.0625C364.364 20.0966 364.182 20.142 363.915 20.142C363.227 20.142 362.642 19.8182 362.824 18.7216L363.75 13.1534H365.608L365.75 12.2727ZM368.695 15.5455C368.962 14.0227 370.149 13.0852 371.541 13.0852C372.893 13.0852 373.598 13.9716 373.359 15.4091L372.428 21H373.445L374.393 15.3466C374.734 13.267 373.712 12.1591 371.945 12.1591C370.621 12.1591 369.655 12.733 369.109 13.642H369.018L369.723 9.36364H368.712L366.78 21H367.791L368.695 15.5455ZM385.5 12.2727H383.648L383.994 10.1818H382.977L382.631 12.2727H381.335L381.188 13.1534H382.489L381.528 18.9602C381.295 20.3864 382.29 21.1307 383.403 21.1307C383.824 21.1307 384.119 21.0511 384.341 20.9773L384.267 20.0625C384.114 20.0966 383.932 20.142 383.665 20.142C382.977 20.142 382.392 19.8182 382.574 18.7216L383.5 13.1534H385.358L385.5 12.2727ZM388.445 15.5455C388.712 14.0227 389.899 13.0852 391.291 13.0852C392.643 13.0852 393.348 13.9716 393.109 15.4091L392.178 21H393.195L394.143 15.3466C394.484 13.267 393.462 12.1591 391.695 12.1591C390.371 12.1591 389.405 12.733 388.859 13.642H388.768L389.473 9.36364H388.462L386.53 21H387.541L388.445 15.5455ZM399.364 21.1818C401.119 21.1818 402.443 20.233 403.023 19.1364L402.119 18.8239C401.653 19.608 400.756 20.2557 399.506 20.2557C397.653 20.2557 396.761 19.125 397.102 16.9375H403.608L403.688 16.4375C404.176 13.5227 402.602 12.1534 400.71 12.1534C398.449 12.1534 396.574 14.0455 396.136 16.6875C395.693 19.3352 396.92 21.1818 399.364 21.1818ZM397.256 16.0455C397.614 14.4943 399.028 13.0739 400.574 13.0739C402.142 13.0739 403.006 14.3636 402.722 16.0455H397.256ZM26.5739 42.3352H27.608C27.8011 40.5057 26.517 39.1989 24.3466 39.1989C22.1932 39.1989 20.3409 40.4716 20.017 42.3636C19.7727 43.858 20.6705 44.7898 22.4034 45.3239L23.733 45.733C25.1136 46.1534 26.017 46.7045 25.8125 47.892C25.5852 49.2898 24.1705 50.2273 22.4261 50.2273C20.858 50.2273 19.7443 49.4716 19.8636 48.0909H18.7727C18.5966 49.9318 19.892 51.1989 22.267 51.1989C24.8182 51.1989 26.5227 49.7955 26.8409 47.9091C27.1648 45.9773 25.6023 45.2045 24.2045 44.7898L23.0284 44.4375C21.9602 44.1193 20.858 43.5455 21.0625 42.3182C21.267 41.0682 22.5455 40.1534 24.1648 40.1534C25.7102 40.1534 26.625 40.9716 26.5739 42.3352ZM32.108 51.1818C34.3352 51.1818 36.1818 49.3693 36.6136 46.75C37.0511 44.0398 35.767 42.1534 33.4659 42.1534C31.2443 42.1534 29.3977 43.9602 28.9659 46.5966C28.5227 49.3011 29.8125 51.1818 32.108 51.1818ZM32.125 50.2557C30.3523 50.2557 29.6307 48.6648 29.9489 46.75C30.2727 44.7557 31.608 43.0739 33.4545 43.0739C35.2273 43.0739 35.9432 44.6818 35.6307 46.5966C35.3068 48.6023 33.9773 50.2557 32.125 50.2557ZM43.169 42.2727H41.2259L41.402 41.2045C41.5611 40.2898 42.1463 39.7784 43.0213 39.7784C43.3565 39.7784 43.544 39.858 43.6974 39.9034L44.1293 39.017C43.9418 38.9318 43.6236 38.8239 43.0895 38.8239C41.8963 38.8239 40.652 39.5852 40.4304 40.9943L40.2202 42.2727H38.8793L38.7372 43.1534H40.0724L38.7656 51H39.777L41.0781 43.1534H43.0213L43.169 42.2727ZM48.625 42.2727H46.7727L47.1193 40.1818H46.1023L45.7557 42.2727H44.4602L44.3125 43.1534H45.6136L44.6534 48.9602C44.4205 50.3864 45.4148 51.1307 46.5284 51.1307C46.9489 51.1307 47.2443 51.0511 47.4659 50.9773L47.392 50.0625C47.2386 50.0966 47.0568 50.142 46.7898 50.142C46.1023 50.142 45.517 49.8182 45.6989 48.7216L46.625 43.1534H48.483L48.625 42.2727ZM51.4048 51H52.4503L55.7003 43.858H55.8082L56.6946 51H57.7401L61.831 42.2727H60.7514L57.4901 49.4545H57.4105L56.5639 42.2727H55.4901L52.2287 49.4716H52.1548L51.2855 42.2727H50.223L51.4048 51ZM64.7571 51.1989C66.2116 51.1989 67.2344 50.392 67.7173 49.6193H67.7798L67.5469 51H68.5582L69.5469 45.0739C69.9332 42.733 68.2741 42.1534 66.9389 42.1534C65.6037 42.1534 64.1264 42.6818 63.3082 44.108L64.206 44.4545C64.6491 43.7102 65.6037 43.0625 66.8651 43.0625C68.1832 43.0625 68.7401 43.7955 68.5469 44.983L68.5128 45.1875C68.3991 45.8409 67.5753 45.858 66.0923 46.0398C64.0753 46.2784 62.6037 46.8352 62.3082 48.5625C62.0469 50.2443 63.1719 51.1989 64.7571 51.1989ZM65.0128 50.2727C63.8707 50.2727 63.1491 49.6648 63.3253 48.608C63.5014 47.5511 64.4446 47.108 65.956 46.9261C66.6662 46.8409 67.9673 46.6818 68.3082 46.392L68.098 47.6534C67.8651 49.0852 66.6264 50.2727 65.0128 50.2727ZM71.2486 51H72.2599L73.1918 45.3636C73.4134 44.0682 74.5554 43.1307 75.919 43.1307C76.1918 43.1307 76.4361 43.1761 76.527 43.1875L76.7031 42.1591C76.5668 42.142 76.3395 42.142 76.169 42.142C75.0724 42.142 74.0213 42.733 73.5327 43.6136H73.4588L73.6861 42.2727H72.7031L71.2486 51ZM80.2074 51.1818C81.9631 51.1818 83.2869 50.233 83.8665 49.1364L82.9631 48.8239C82.4972 49.608 81.5994 50.2557 80.3494 50.2557C78.4972 50.2557 77.6051 49.125 77.946 46.9375H84.4517L84.5312 46.4375C85.0199 43.5227 83.446 42.1534 81.554 42.1534C79.2926 42.1534 77.4176 44.0455 76.9801 46.6875C76.5369 49.3352 77.7642 51.1818 80.2074 51.1818ZM78.0994 46.0455C78.4574 44.4943 79.8722 43.0739 81.4176 43.0739C82.9858 43.0739 83.8494 44.3636 83.5653 46.0455H78.0994ZM97.4986 44.1875C97.277 42.9261 96.4759 42.1534 94.8679 42.1534C93.1122 42.1534 91.669 43.1477 91.4304 44.5852C91.2315 45.7557 91.8224 46.5511 93.2827 46.9261L94.6406 47.267C95.5724 47.4943 95.9531 47.9659 95.8281 48.6761C95.6861 49.5795 94.6861 50.2727 93.3395 50.2727C92.1577 50.2727 91.4986 49.733 91.4361 48.7045L90.419 48.9318C90.4872 50.3864 91.5156 51.1818 93.2315 51.1818C95.152 51.1818 96.6406 50.1307 96.8849 48.6591C97.0781 47.483 96.4759 46.7045 95.0668 46.3409L93.794 46.017C92.7599 45.75 92.3338 45.3068 92.4588 44.5682C92.6009 43.6818 93.5497 43.0455 94.7372 43.0455C95.9134 43.0455 96.3736 43.6534 96.527 44.4375L97.4986 44.1875ZM102.139 51.1818C104.366 51.1818 106.213 49.3693 106.645 46.75C107.082 44.0398 105.798 42.1534 103.497 42.1534C101.276 42.1534 99.429 43.9602 98.9972 46.5966C98.554 49.3011 99.8438 51.1818 102.139 51.1818ZM102.156 50.2557C100.384 50.2557 99.6619 48.6648 99.9801 46.75C100.304 44.7557 101.639 43.0739 103.486 43.0739C105.259 43.0739 105.974 44.6818 105.662 46.5966C105.338 48.6023 104.009 50.2557 102.156 50.2557ZM114.592 51H115.638L118.888 43.858H118.996L119.882 51H120.928L125.018 42.2727H123.939L120.678 49.4545H120.598L119.751 42.2727H118.678L115.416 49.4716H115.342L114.473 42.2727H113.411L114.592 51ZM128.739 51.1818C130.494 51.1818 131.818 50.233 132.398 49.1364L131.494 48.8239C131.028 49.608 130.131 50.2557 128.881 50.2557C127.028 50.2557 126.136 49.125 126.477 46.9375H132.983L133.062 46.4375C133.551 43.5227 131.977 42.1534 130.085 42.1534C127.824 42.1534 125.949 44.0455 125.511 46.6875C125.068 49.3352 126.295 51.1818 128.739 51.1818ZM126.631 46.0455C126.989 44.4943 128.403 43.0739 129.949 43.0739C131.517 43.0739 132.381 44.3636 132.097 46.0455H126.631ZM142.166 51.1818C143.746 51.1818 144.655 50.1761 145.143 49.3807H145.263L144.99 51H145.973L147.905 39.3636H146.893L146.132 43.9375H146.041C145.825 43.1534 145.268 42.1534 143.666 42.1534C141.518 42.1534 139.763 43.9716 139.314 46.6591C138.871 49.3693 140.013 51.1818 142.166 51.1818ZM142.382 50.2557C140.643 50.2557 139.996 48.6761 140.337 46.642C140.666 44.6307 141.859 43.0739 143.609 43.0739C145.314 43.0739 146.047 44.5511 145.7 46.642C145.348 48.75 144.075 50.2557 142.382 50.2557ZM152.364 51.1818C154.119 51.1818 155.443 50.233 156.023 49.1364L155.119 48.8239C154.653 49.608 153.756 50.2557 152.506 50.2557C150.653 50.2557 149.761 49.125 150.102 46.9375H156.608L156.688 46.4375C157.176 43.5227 155.602 42.1534 153.71 42.1534C151.449 42.1534 149.574 44.0455 149.136 46.6875C148.693 49.3352 149.92 51.1818 152.364 51.1818ZM150.256 46.0455C150.614 44.4943 152.028 43.0739 153.574 43.0739C155.142 43.0739 156.006 44.3636 155.722 46.0455H150.256ZM161.541 51.1818C163.354 51.1818 164.814 50.0398 165.325 48.4545H164.303C163.876 49.5625 162.842 50.2557 161.678 50.2557C159.962 50.2557 159.087 48.767 159.45 46.642C159.791 44.5284 161.212 43.0739 162.905 43.0739C164.143 43.0739 164.837 43.858 164.888 44.8636H165.911C165.939 43.2443 164.774 42.1534 163.024 42.1534C160.74 42.1534 158.859 44.0455 158.433 46.6761C158.001 49.2727 159.183 51.1818 161.541 51.1818ZM167.072 51H168.089L169.544 42.2727H168.527L167.072 51ZM169.402 40.7557C169.811 40.7557 170.158 40.4318 170.169 40.0455C170.18 39.6364 169.839 39.3011 169.419 39.3011C169.01 39.3011 168.663 39.625 168.652 40.0114C168.641 40.4205 168.976 40.7557 169.402 40.7557ZM173.901 51.1818C175.48 51.1818 176.389 50.1761 176.878 49.3807H176.997L176.724 51H177.707L179.639 39.3636H178.628L177.866 43.9375H177.776C177.56 43.1534 177.003 42.1534 175.401 42.1534C173.253 42.1534 171.497 43.9716 171.048 46.6591C170.605 49.3693 171.747 51.1818 173.901 51.1818ZM174.116 50.2557C172.378 50.2557 171.73 48.6761 172.071 46.642C172.401 44.6307 173.594 43.0739 175.344 43.0739C177.048 43.0739 177.781 44.5511 177.435 46.642C177.082 48.75 175.81 50.2557 174.116 50.2557ZM184.098 51.1818C185.854 51.1818 187.178 50.233 187.757 49.1364L186.854 48.8239C186.388 49.608 185.49 50.2557 184.24 50.2557C182.388 50.2557 181.496 49.125 181.837 46.9375H188.342L188.422 46.4375C188.911 43.5227 187.337 42.1534 185.445 42.1534C183.183 42.1534 181.308 44.0455 180.871 46.6875C180.428 49.3352 181.655 51.1818 184.098 51.1818ZM181.99 46.0455C182.348 44.4943 183.763 43.0739 185.308 43.0739C186.876 43.0739 187.74 44.3636 187.456 46.0455H181.99ZM193.026 51.1818C194.605 51.1818 195.514 50.1761 196.003 49.3807H196.122L195.849 51H196.832L198.764 39.3636H197.753L196.991 43.9375H196.901C196.685 43.1534 196.128 42.1534 194.526 42.1534C192.378 42.1534 190.622 43.9716 190.173 46.6591C189.73 49.3693 190.872 51.1818 193.026 51.1818ZM193.241 50.2557C191.503 50.2557 190.855 48.6761 191.196 46.642C191.526 44.6307 192.719 43.0739 194.469 43.0739C196.173 43.0739 196.906 44.5511 196.56 46.642C196.207 48.75 194.935 50.2557 193.241 50.2557ZM209.109 42.2727H207.257L207.604 40.1818H206.587L206.24 42.2727H204.945L204.797 43.1534H206.098L205.138 48.9602C204.905 50.3864 205.899 51.1307 207.013 51.1307C207.433 51.1307 207.729 51.0511 207.95 50.9773L207.876 50.0625C207.723 50.0966 207.541 50.142 207.274 50.142C206.587 50.142 206.001 49.8182 206.183 48.7216L207.109 43.1534H208.967L209.109 42.2727ZM213.295 51.1818C215.523 51.1818 217.369 49.3693 217.801 46.75C218.239 44.0398 216.955 42.1534 214.653 42.1534C212.432 42.1534 210.585 43.9602 210.153 46.5966C209.71 49.3011 211 51.1818 213.295 51.1818ZM213.312 50.2557C211.54 50.2557 210.818 48.6648 211.136 46.75C211.46 44.7557 212.795 43.0739 214.642 43.0739C216.415 43.0739 217.131 44.6818 216.818 46.5966C216.494 48.6023 215.165 50.2557 213.312 50.2557ZM227.317 51.1818C229.072 51.1818 230.396 50.233 230.976 49.1364L230.072 48.8239C229.607 49.608 228.709 50.2557 227.459 50.2557C225.607 50.2557 224.714 49.125 225.055 46.9375H231.561L231.641 46.4375C232.129 43.5227 230.555 42.1534 228.663 42.1534C226.402 42.1534 224.527 44.0455 224.089 46.6875C223.646 49.3352 224.874 51.1818 227.317 51.1818ZM225.209 46.0455C225.567 44.4943 226.982 43.0739 228.527 43.0739C230.095 43.0739 230.959 44.3636 230.675 46.0455H225.209ZM234.942 42.2727H233.783L235.828 46.6307L232.317 51H233.51L236.357 47.4034L238.004 51H239.169L237.089 46.6534L240.635 42.2727H239.453L236.578 45.9943L234.942 42.2727ZM240.733 54.2727H241.75L242.568 49.3807H242.659C242.886 50.1818 243.46 51.1818 245.045 51.1818C247.182 51.1818 248.938 49.3636 249.386 46.6591C249.83 43.9602 248.688 42.1534 246.528 42.1534C244.92 42.1534 244.045 43.1534 243.568 43.9375H243.443L243.716 42.2727H242.733L240.733 54.2727ZM243.006 46.642C243.347 44.5511 244.58 43.0739 246.284 43.0739C248.045 43.0739 248.693 44.6307 248.369 46.642C248.028 48.6761 246.795 50.2557 245.057 50.2557C243.369 50.2557 242.665 48.75 243.006 46.642ZM253.288 51.1989C254.743 51.1989 255.766 50.392 256.249 49.6193H256.311L256.078 51H257.089L258.078 45.0739C258.464 42.733 256.805 42.1534 255.47 42.1534C254.135 42.1534 252.658 42.6818 251.839 44.108L252.737 44.4545C253.18 43.7102 254.135 43.0625 255.396 43.0625C256.714 43.0625 257.271 43.7955 257.078 44.983L257.044 45.1875C256.93 45.8409 256.107 45.858 254.624 46.0398C252.607 46.2784 251.135 46.8352 250.839 48.5625C250.578 50.2443 251.703 51.1989 253.288 51.1989ZM253.544 50.2727C252.402 50.2727 251.68 49.6648 251.857 48.608C252.033 47.5511 252.976 47.108 254.487 46.9261C255.197 46.8409 256.499 46.6818 256.839 46.392L256.629 47.6534C256.396 49.0852 255.158 50.2727 253.544 50.2727ZM261.695 45.5455C261.962 44.0227 263.121 43.0852 264.496 43.0852C265.848 43.0852 266.536 43.983 266.303 45.4091L265.371 51H266.382L267.331 45.3466C267.672 43.2784 266.649 42.1591 264.899 42.1591C263.621 42.1591 262.626 42.75 262.081 43.642H261.99L262.217 42.2727H261.234L259.78 51H260.791L261.695 45.5455ZM272.182 51.1818C273.761 51.1818 274.67 50.1761 275.159 49.3807H275.278L275.006 51H275.989L277.92 39.3636H276.909L276.148 43.9375H276.057C275.841 43.1534 275.284 42.1534 273.682 42.1534C271.534 42.1534 269.778 43.9716 269.33 46.6591C268.886 49.3693 270.028 51.1818 272.182 51.1818ZM272.398 50.2557C270.659 50.2557 270.011 48.6761 270.352 46.642C270.682 44.6307 271.875 43.0739 273.625 43.0739C275.33 43.0739 276.062 44.5511 275.716 46.642C275.364 48.75 274.091 50.2557 272.398 50.2557ZM286.811 51.1818C289.038 51.1818 290.885 49.3693 291.317 46.75C291.754 44.0398 290.47 42.1534 288.169 42.1534C285.947 42.1534 284.101 43.9602 283.669 46.5966C283.226 49.3011 284.516 51.1818 286.811 51.1818ZM286.828 50.2557C285.055 50.2557 284.334 48.6648 284.652 46.75C284.976 44.7557 286.311 43.0739 288.158 43.0739C289.93 43.0739 290.646 44.6818 290.334 46.5966C290.01 48.6023 288.68 50.2557 286.828 50.2557ZM298.923 47.6648C298.656 49.267 297.315 50.1307 296.134 50.1307C294.878 50.1307 294.145 49.2273 294.361 47.8636L295.293 42.2727H294.281L293.332 47.9261C292.991 49.9943 293.997 51.1136 295.673 51.1136C296.952 51.1136 297.991 50.4489 298.537 49.5511H298.611L298.372 51H299.384L300.838 42.2727H299.827L298.923 47.6648ZM302.061 51H303.072L304.004 45.3636C304.226 44.0682 305.368 43.1307 306.732 43.1307C307.004 43.1307 307.249 43.1761 307.339 43.1875L307.516 42.1591C307.379 42.142 307.152 42.142 306.982 42.142C305.885 42.142 304.834 42.733 304.345 43.6136H304.271L304.499 42.2727H303.516L302.061 51ZM319.28 44.1875C319.058 42.9261 318.257 42.1534 316.649 42.1534C314.893 42.1534 313.45 43.1477 313.212 44.5852C313.013 45.7557 313.604 46.5511 315.064 46.9261L316.422 47.267C317.354 47.4943 317.734 47.9659 317.609 48.6761C317.467 49.5795 316.467 50.2727 315.121 50.2727C313.939 50.2727 313.28 49.733 313.217 48.7045L312.2 48.9318C312.268 50.3864 313.297 51.1818 315.013 51.1818C316.933 51.1818 318.422 50.1307 318.666 48.6591C318.859 47.483 318.257 46.7045 316.848 46.3409L315.575 46.017C314.541 45.75 314.115 45.3068 314.24 44.5682C314.382 43.6818 315.331 43.0455 316.518 43.0455C317.695 43.0455 318.155 43.6534 318.308 44.4375L319.28 44.1875ZM323.869 51.1818C325.682 51.1818 327.142 50.0398 327.653 48.4545H326.631C326.205 49.5625 325.17 50.2557 324.006 50.2557C322.29 50.2557 321.415 48.767 321.778 46.642C322.119 44.5284 323.54 43.0739 325.233 43.0739C326.472 43.0739 327.165 43.858 327.216 44.8636H328.239C328.267 43.2443 327.102 42.1534 325.352 42.1534C323.068 42.1534 321.188 44.0455 320.761 46.6761C320.33 49.2727 321.511 51.1818 323.869 51.1818ZM332.827 51.1818C335.054 51.1818 336.901 49.3693 337.332 46.75C337.77 44.0398 336.486 42.1534 334.185 42.1534C331.963 42.1534 330.116 43.9602 329.685 46.5966C329.241 49.3011 330.531 51.1818 332.827 51.1818ZM332.844 50.2557C331.071 50.2557 330.349 48.6648 330.668 46.75C330.991 44.7557 332.327 43.0739 334.173 43.0739C335.946 43.0739 336.662 44.6818 336.349 46.5966C336.026 48.6023 334.696 50.2557 332.844 50.2557ZM338.28 54.2727H339.297L340.115 49.3807H340.206C340.433 50.1818 341.007 51.1818 342.592 51.1818C344.729 51.1818 346.484 49.3636 346.933 46.6591C347.376 43.9602 346.234 42.1534 344.075 42.1534C342.467 42.1534 341.592 43.1534 341.115 43.9375H340.99L341.263 42.2727H340.28L338.28 54.2727ZM340.553 46.642C340.893 44.5511 342.126 43.0739 343.831 43.0739C345.592 43.0739 346.24 44.6307 345.916 46.642C345.575 48.6761 344.342 50.2557 342.604 50.2557C340.916 50.2557 340.212 48.75 340.553 46.642ZM351.926 51.1818C353.682 51.1818 355.006 50.233 355.585 49.1364L354.682 48.8239C354.216 49.608 353.318 50.2557 352.068 50.2557C350.216 50.2557 349.324 49.125 349.665 46.9375H356.17L356.25 46.4375C356.739 43.5227 355.165 42.1534 353.273 42.1534C351.011 42.1534 349.136 44.0455 348.699 46.6875C348.256 49.3352 349.483 51.1818 351.926 51.1818ZM349.818 46.0455C350.176 44.4943 351.591 43.0739 353.136 43.0739C354.705 43.0739 355.568 44.3636 355.284 46.0455H349.818ZM367.109 42.2727H365.257L365.604 40.1818H364.587L364.24 42.2727H362.945L362.797 43.1534H364.098L363.138 48.9602C362.905 50.3864 363.899 51.1307 365.013 51.1307C365.433 51.1307 365.729 51.0511 365.95 50.9773L365.876 50.0625C365.723 50.0966 365.541 50.142 365.274 50.142C364.587 50.142 364.001 49.8182 364.183 48.7216L365.109 43.1534H366.967L367.109 42.2727ZM371.295 51.1818C373.523 51.1818 375.369 49.3693 375.801 46.75C376.239 44.0398 374.955 42.1534 372.653 42.1534C370.432 42.1534 368.585 43.9602 368.153 46.5966C367.71 49.3011 369 51.1818 371.295 51.1818ZM371.312 50.2557C369.54 50.2557 368.818 48.6648 369.136 46.75C369.46 44.7557 370.795 43.0739 372.642 43.0739C374.415 43.0739 375.131 44.6818 374.818 46.5966C374.494 48.6023 373.165 50.2557 371.312 50.2557ZM382.021 51H383.004L383.277 49.3807H383.402C383.629 50.1818 384.197 51.1818 385.788 51.1818C387.93 51.1818 389.68 49.3636 390.129 46.6591C390.572 43.9716 389.425 42.1534 387.271 42.1534C385.675 42.1534 384.777 43.1534 384.311 43.9375H384.22L384.97 39.3636H383.953L382.021 51ZM383.749 46.642C384.089 44.5511 385.322 43.0739 387.027 43.0739C388.777 43.0739 389.436 44.6307 389.112 46.642C388.771 48.6761 387.538 50.2557 385.8 50.2557C384.107 50.2557 383.408 48.75 383.749 46.642ZM397.72 47.6648C397.453 49.267 396.112 50.1307 394.93 50.1307C393.675 50.1307 392.942 49.2273 393.158 47.8636L394.089 42.2727H393.078L392.129 47.9261C391.788 49.9943 392.794 51.1136 394.47 51.1136C395.749 51.1136 396.788 50.4489 397.334 49.5511H397.408L397.169 51H398.18L399.635 42.2727H398.624L397.72 47.6648ZM400.869 51H401.886L403.341 42.2727H402.324L400.869 51ZM403.199 40.7557C403.608 40.7557 403.955 40.4318 403.966 40.0455C403.977 39.6364 403.636 39.3011 403.216 39.3011C402.807 39.3011 402.46 39.625 402.449 40.0114C402.438 40.4205 402.773 40.7557 403.199 40.7557ZM407.504 39.3636H406.493L404.561 51H405.572L407.504 39.3636ZM411.385 51.1818C412.964 51.1818 413.874 50.1761 414.362 49.3807H414.482L414.209 51H415.192L417.124 39.3636H416.112L415.351 43.9375H415.26C415.044 43.1534 414.487 42.1534 412.885 42.1534C410.737 42.1534 408.982 43.9716 408.533 46.6591C408.089 49.3693 409.232 51.1818 411.385 51.1818ZM411.601 50.2557C409.862 50.2557 409.214 48.6761 409.555 46.642C409.885 44.6307 411.078 43.0739 412.828 43.0739C414.533 43.0739 415.266 44.5511 414.919 46.642C414.567 48.75 413.294 50.2557 411.601 50.2557ZM20.5227 75.5455C20.7898 74.0227 21.9489 73.0852 23.3239 73.0852C24.6761 73.0852 25.3636 73.983 25.1307 75.4091L24.1989 81H25.2102L26.1591 75.3466C26.5 73.2784 25.4773 72.1591 23.7273 72.1591C22.4489 72.1591 21.4545 72.75 20.9091 73.642H20.8182L21.0455 72.2727H20.0625L18.608 81H19.6193L20.5227 75.5455ZM31.3793 81.1818C33.1349 81.1818 34.4588 80.233 35.0384 79.1364L34.1349 78.8239C33.669 79.608 32.7713 80.2557 31.5213 80.2557C29.669 80.2557 28.777 79.125 29.1179 76.9375H35.6236L35.7031 76.4375C36.1918 73.5227 34.6179 72.1534 32.7259 72.1534C30.4645 72.1534 28.5895 74.0455 28.152 76.6875C27.7088 79.3352 28.9361 81.1818 31.3793 81.1818ZM29.2713 76.0455C29.6293 74.4943 31.044 73.0739 32.5895 73.0739C34.1577 73.0739 35.0213 74.3636 34.7372 76.0455H29.2713ZM39.108 81H40.1534L43.4034 73.858H43.5114L44.3977 81H45.4432L49.5341 72.2727H48.4545L45.1932 79.4545H45.1136L44.267 72.2727H43.1932L39.9318 79.4716H39.858L38.9886 72.2727H37.9261L39.108 81ZM54.5455 81H55.5568L56.4886 75.4091C56.7102 74.0511 57.7955 73.0852 59.0057 73.0852C60.2045 73.0852 60.7386 73.8807 60.5511 75.0625L59.5568 81H60.5909L61.5511 75.2557C61.7557 73.9943 62.6705 73.0852 64.0057 73.0852C65.1591 73.0852 65.7841 73.7727 65.5682 75.1534L64.5909 81H65.6023L66.5795 75.1534C66.9091 73.2045 66.0682 72.1591 64.4545 72.1591C63.1818 72.1591 62.1477 72.7727 61.6023 73.7443H61.5284C61.3011 72.7557 60.6364 72.1591 59.4375 72.1591C58.2955 72.1591 57.3523 72.7102 56.8466 73.6136H56.7557L56.983 72.2727H56L54.5455 81ZM71.7173 81.1818C73.9446 81.1818 75.7912 79.3693 76.223 76.75C76.6605 74.0398 75.3764 72.1534 73.0753 72.1534C70.8537 72.1534 69.0071 73.9602 68.5753 76.5966C68.1321 79.3011 69.4219 81.1818 71.7173 81.1818ZM71.7344 80.2557C69.9616 80.2557 69.2401 78.6648 69.5582 76.75C69.8821 74.7557 71.2173 73.0739 73.0639 73.0739C74.8366 73.0739 75.5526 74.6818 75.2401 76.5966C74.9162 78.6023 73.5866 80.2557 71.7344 80.2557ZM80.8693 81.1818C82.4489 81.1818 83.358 80.1761 83.8466 79.3807H83.9659L83.6932 81H84.6761L86.608 69.3636H85.5966L84.8352 73.9375H84.7443C84.5284 73.1534 83.9716 72.1534 82.3693 72.1534C80.2216 72.1534 78.4659 73.9716 78.017 76.6591C77.5739 79.3693 78.7159 81.1818 80.8693 81.1818ZM81.0852 80.2557C79.3466 80.2557 78.6989 78.6761 79.0398 76.642C79.3693 74.6307 80.5625 73.0739 82.3125 73.0739C84.017 73.0739 84.75 74.5511 84.4034 76.642C84.0511 78.75 82.7784 80.2557 81.0852 80.2557ZM93.6577 77.6648C93.3906 79.267 92.0497 80.1307 90.8679 80.1307C89.6122 80.1307 88.8793 79.2273 89.0952 77.8636L90.027 72.2727H89.0156L88.0668 77.9261C87.7259 79.9943 88.7315 81.1136 90.4077 81.1136C91.6861 81.1136 92.7259 80.4489 93.2713 79.5511H93.3452L93.1065 81H94.1179L95.5724 72.2727H94.5611L93.6577 77.6648ZM99.7386 69.3636H98.7273L96.7955 81H97.8068L99.7386 69.3636ZM103.989 81.1818C105.744 81.1818 107.068 80.233 107.648 79.1364L106.744 78.8239C106.278 79.608 105.381 80.2557 104.131 80.2557C102.278 80.2557 101.386 79.125 101.727 76.9375H108.233L108.312 76.4375C108.801 73.5227 107.227 72.1534 105.335 72.1534C103.074 72.1534 101.199 74.0455 100.761 76.6875C100.318 79.3352 101.545 81.1818 103.989 81.1818ZM101.881 76.0455C102.239 74.4943 103.653 73.0739 105.199 73.0739C106.767 73.0739 107.631 74.3636 107.347 76.0455H101.881ZM116.78 74.1875C116.558 72.9261 115.757 72.1534 114.149 72.1534C112.393 72.1534 110.95 73.1477 110.712 74.5852C110.513 75.7557 111.104 76.5511 112.564 76.9261L113.922 77.267C114.854 77.4943 115.234 77.9659 115.109 78.6761C114.967 79.5795 113.967 80.2727 112.621 80.2727C111.439 80.2727 110.78 79.733 110.717 78.7045L109.7 78.9318C109.768 80.3864 110.797 81.1818 112.513 81.1818C114.433 81.1818 115.922 80.1307 116.166 78.6591C116.359 77.483 115.757 76.7045 114.348 76.3409L113.075 76.017C112.041 75.75 111.615 75.3068 111.74 74.5682C111.882 73.6818 112.831 73.0455 114.018 73.0455C115.195 73.0455 115.655 73.6534 115.808 74.4375L116.78 74.1875ZM120.778 69.3636H119.824L119.176 73.2443H120.131L120.778 69.3636ZM123.443 69.3636H122.489L121.841 73.2443H122.795L123.443 69.3636Z" fill="url(#paint1_linear_1_626)"/>
<defs>
<linearGradient id="paint0_linear_1_626" x1="3" y1="0" x2="-2.99287" y2="0.206651" gradientUnits="userSpaceOnUse">
<stop stop-color="#F76680"/>
<stop offset="1" stop-color="#57007B"/>
</linearGradient>
<linearGradient id="paint1_linear_1_626" x1="453" y1="0" x2="419.538" y2="167.308" gradientUnits="userSpaceOnUse">
<stop stop-color="#F76680"/>
<stop offset="1" stop-color="#57007B"/>
</linearGradient>
</defs>
</svg>
