<svg width="22" height="23" viewBox="0 0 22 23" fill="none" xmlns="http://www.w3.org/2000/svg">
<path fill-rule="evenodd" clip-rule="evenodd" d="M5.76202 1.03662C3.14524 1.03662 1.02393 3.15794 1.02393 5.77472V16.2509C1.02393 18.8677 3.14524 20.989 5.76202 20.989H16.2382C18.855 20.989 20.9763 18.8677 20.9763 16.2509V5.77472C20.9763 3.15794 18.855 1.03662 16.2382 1.03662H5.76202ZM0.0239258 5.77472C0.0239258 2.60565 2.59296 0.0366211 5.76202 0.0366211H16.2382C19.4073 0.0366211 21.9763 2.60565 21.9763 5.77472V16.2509C21.9763 19.42 19.4073 21.989 16.2382 21.989H5.76202C2.59296 21.989 0.0239258 19.42 0.0239258 16.2509V5.77472ZM11.5868 7.31673C10.8189 7.20287 10.0347 7.33402 9.34572 7.69154C8.65671 8.04905 8.09797 8.61472 7.74898 9.30809C7.39999 10.0015 7.27851 10.7872 7.40183 11.5536C7.52516 12.32 7.88699 13.028 8.43588 13.5768C8.98477 14.1257 9.69275 14.4876 10.4591 14.6109C11.2255 14.7342 12.0113 14.6127 12.7046 14.2638C13.398 13.9148 13.9637 13.356 14.3212 12.667C14.6787 11.978 14.8099 11.1938 14.696 10.426C14.5799 9.64272 14.2149 8.91761 13.655 8.35773C13.0951 7.79784 12.37 7.43288 11.5868 7.31673ZM8.88515 6.80391C9.76086 6.34953 10.7575 6.18283 11.7335 6.32755C12.7289 6.47516 13.6505 6.93903 14.3621 7.65062C15.0737 8.36222 15.5376 9.28381 15.6852 10.2793C15.8299 11.2552 15.6632 12.2519 15.2088 13.1276C14.7544 14.0033 14.0355 14.7134 13.1542 15.157C12.273 15.6005 11.2743 15.7549 10.3003 15.5982C9.32621 15.4415 8.42639 14.9816 7.72877 14.284C7.03116 13.5863 6.57127 12.6865 6.41453 11.7125C6.2578 10.7384 6.41219 9.73975 6.85574 8.8585C7.2993 7.97725 8.00944 7.2583 8.88515 6.80391ZM16.762 4.75091C16.4859 4.75091 16.262 4.97476 16.262 5.25091C16.262 5.52705 16.4859 5.75091 16.762 5.75091H16.772C17.0482 5.75091 17.272 5.52705 17.272 5.25091C17.272 4.97476 17.0482 4.75091 16.772 4.75091H16.762Z" fill="white"/>
</svg>
