<svg width="120" height="32" viewBox="0 0 120 32" fill="none" xmlns="http://www.w3.org/2000/svg">
<g filter="url(#filter0_d_410_3108)">
<line x1="6" y1="5.0127" x2="6" y2="21.0127" stroke="white" stroke-width="4" stroke-linecap="round"/>
</g>
<g filter="url(#filter1_d_410_3108)">
<line x1="16" y1="7.0127" x2="16" y2="19.0127" stroke="white" stroke-width="4" stroke-linecap="round"/>
</g>
<g filter="url(#filter2_d_410_3108)">
<line x1="26" y1="9.0127" x2="26" y2="17.0127" stroke="white" stroke-width="4" stroke-linecap="round"/>
</g>
<path d="M44.8389 17.167C44.8389 16.7373 44.7673 16.3542 44.624 16.0176C44.4808 15.681 44.2445 15.3802 43.915 15.1152C43.5928 14.8431 43.1559 14.5924 42.6045 14.3633C42.0602 14.127 41.3799 13.8942 40.5635 13.665C39.7829 13.443 39.0775 13.1995 38.4473 12.9346C37.8171 12.6696 37.2764 12.3652 36.8252 12.0215C36.3812 11.6777 36.041 11.2767 35.8047 10.8184C35.5684 10.3529 35.4502 9.81217 35.4502 9.19629C35.4502 8.59473 35.5791 8.04688 35.8369 7.55273C36.0947 7.05859 36.4564 6.63249 36.9219 6.27441C37.3945 5.91634 37.9495 5.64062 38.5869 5.44727C39.2314 5.25391 39.9368 5.15723 40.7031 5.15723C41.7988 5.15723 42.7441 5.36491 43.5391 5.78027C44.3411 6.19564 44.9606 6.75781 45.3975 7.4668C45.8415 8.16862 46.0635 8.95638 46.0635 9.83008H44.7422C44.7422 9.14974 44.5811 8.5446 44.2588 8.01465C43.9437 7.47754 43.4854 7.05859 42.8838 6.75781C42.2894 6.44987 41.5625 6.2959 40.7031 6.2959C39.8438 6.2959 39.1204 6.42839 38.5332 6.69336C37.9531 6.95117 37.5127 7.2985 37.2119 7.73535C36.9183 8.16504 36.7715 8.64486 36.7715 9.1748C36.7715 9.5472 36.8431 9.89095 36.9863 10.2061C37.1296 10.514 37.3623 10.804 37.6846 11.0762C38.014 11.3411 38.4473 11.5918 38.9844 11.8281C39.5215 12.0573 40.1839 12.2757 40.9717 12.4834C41.8024 12.7126 42.54 12.9668 43.1846 13.2461C43.8291 13.5254 44.3734 13.8477 44.8174 14.2129C45.2614 14.571 45.598 14.9899 45.8271 15.4697C46.0563 15.9495 46.1709 16.5081 46.1709 17.1455C46.1709 17.7829 46.0348 18.3558 45.7627 18.8643C45.4977 19.3656 45.1217 19.7917 44.6348 20.1426C44.1549 20.4935 43.5856 20.762 42.9268 20.9482C42.2751 21.1344 41.5625 21.2275 40.7891 21.2275C40.0944 21.2275 39.4033 21.138 38.7158 20.959C38.0283 20.7799 37.3981 20.5042 36.8252 20.1318C36.2594 19.7523 35.8047 19.2653 35.4609 18.6709C35.1243 18.0765 34.9561 17.3675 34.9561 16.5439H36.2666C36.2666 17.2028 36.3991 17.7578 36.6641 18.209C36.929 18.6602 37.2799 19.0254 37.7168 19.3047C38.1608 19.584 38.6478 19.7881 39.1777 19.917C39.7148 20.0387 40.252 20.0996 40.7891 20.0996C41.6126 20.0996 42.3252 19.9779 42.9268 19.7344C43.5355 19.4909 44.0046 19.1507 44.334 18.7139C44.6706 18.2699 44.8389 17.7542 44.8389 17.167ZM50.1562 9.38965V21.0127H48.8779V9.38965H50.1562ZM48.6523 6.02734C48.6523 5.78385 48.7275 5.57975 48.8779 5.41504C49.0355 5.24316 49.2503 5.15723 49.5225 5.15723C49.7946 5.15723 50.0094 5.24316 50.167 5.41504C50.3317 5.57975 50.4141 5.78385 50.4141 6.02734C50.4141 6.26367 50.3317 6.46777 50.167 6.63965C50.0094 6.80436 49.7946 6.88672 49.5225 6.88672C49.2503 6.88672 49.0355 6.80436 48.8779 6.63965C48.7275 6.46777 48.6523 6.26367 48.6523 6.02734ZM58.0625 9.38965V10.4424H52.2402V9.38965H58.0625ZM54.3779 6.40332H55.6562V18.1875C55.6562 18.7246 55.7279 19.1292 55.8711 19.4014C56.0143 19.6735 56.2005 19.8561 56.4297 19.9492C56.6589 20.0423 56.9059 20.0889 57.1709 20.0889C57.3643 20.0889 57.5505 20.0781 57.7295 20.0566C57.9085 20.028 58.0697 19.9993 58.2129 19.9707L58.2666 21.0557C58.109 21.1058 57.9049 21.1452 57.6543 21.1738C57.4036 21.2096 57.153 21.2275 56.9023 21.2275C56.4082 21.2275 55.9714 21.138 55.5918 20.959C55.2122 20.7728 54.915 20.4577 54.7002 20.0137C54.4854 19.5625 54.3779 18.9502 54.3779 18.1768V6.40332ZM65.249 21.2275C64.4899 21.2275 63.7917 21.0879 63.1543 20.8086C62.5241 20.5293 61.9727 20.1354 61.5 19.627C61.0345 19.1185 60.6729 18.5169 60.415 17.8223C60.1644 17.1204 60.0391 16.3542 60.0391 15.5234V15.0615C60.0391 14.1663 60.1715 13.3571 60.4365 12.6338C60.7015 11.9105 61.0667 11.291 61.5322 10.7754C61.9977 10.2598 62.5277 9.86589 63.1221 9.59375C63.7236 9.31445 64.3538 9.1748 65.0127 9.1748C65.7503 9.1748 66.4056 9.30729 66.9785 9.57227C67.5514 9.83008 68.0312 10.1989 68.418 10.6787C68.8118 11.1514 69.109 11.7135 69.3096 12.3652C69.5101 13.0098 69.6104 13.7223 69.6104 14.5029V15.2871H60.8125V14.1914H68.332V14.041C68.3177 13.3893 68.1852 12.7806 67.9346 12.2148C67.6911 11.6419 67.3258 11.1764 66.8389 10.8184C66.3519 10.4603 65.7432 10.2812 65.0127 10.2812C64.4684 10.2812 63.9671 10.3958 63.5088 10.625C63.0576 10.8542 62.6673 11.1836 62.3379 11.6133C62.0156 12.0358 61.765 12.5407 61.5859 13.1279C61.4141 13.708 61.3281 14.3525 61.3281 15.0615V15.5234C61.3281 16.168 61.4212 16.7695 61.6074 17.3281C61.8008 17.8796 62.0729 18.3665 62.4238 18.7891C62.7819 19.2116 63.2044 19.541 63.6914 19.7773C64.1784 20.0137 64.7155 20.1318 65.3027 20.1318C65.9902 20.1318 66.599 20.0065 67.1289 19.7559C67.6589 19.498 68.1351 19.0934 68.5576 18.542L69.3633 19.165C69.1126 19.5374 68.7975 19.8812 68.418 20.1963C68.0456 20.5114 67.598 20.762 67.0752 20.9482C66.5524 21.1344 65.9437 21.2275 65.249 21.2275ZM81.8457 18.875V21.0127H73.9932V18.875H81.8457ZM74.7451 5.37207V21.0127H72.0488V5.37207H74.7451ZM83.1777 15.3301V15.083C83.1777 14.2451 83.2995 13.4681 83.543 12.752C83.7865 12.0286 84.1374 11.402 84.5957 10.8721C85.0612 10.335 85.627 9.9196 86.293 9.62598C86.9661 9.3252 87.7253 9.1748 88.5703 9.1748C89.4225 9.1748 90.1816 9.3252 90.8477 9.62598C91.5208 9.9196 92.0902 10.335 92.5557 10.8721C93.0212 11.402 93.3757 12.0286 93.6191 12.752C93.8626 13.4681 93.9844 14.2451 93.9844 15.083V15.3301C93.9844 16.168 93.8626 16.945 93.6191 17.6611C93.3757 18.3773 93.0212 19.0039 92.5557 19.541C92.0902 20.071 91.5244 20.4863 90.8584 20.7871C90.1924 21.0807 89.4368 21.2275 88.5918 21.2275C87.7396 21.2275 86.9769 21.0807 86.3037 20.7871C85.6377 20.4863 85.0719 20.071 84.6064 19.541C84.141 19.0039 83.7865 18.3773 83.543 17.6611C83.2995 16.945 83.1777 16.168 83.1777 15.3301ZM85.7666 15.083V15.3301C85.7666 15.8529 85.8203 16.347 85.9277 16.8125C86.0352 17.278 86.2035 17.6862 86.4326 18.0371C86.6618 18.388 86.9554 18.6637 87.3135 18.8643C87.6715 19.0648 88.0977 19.165 88.5918 19.165C89.0716 19.165 89.487 19.0648 89.8379 18.8643C90.196 18.6637 90.4896 18.388 90.7188 18.0371C90.9479 17.6862 91.1162 17.278 91.2236 16.8125C91.3382 16.347 91.3955 15.8529 91.3955 15.3301V15.083C91.3955 14.5674 91.3382 14.0804 91.2236 13.6221C91.1162 13.1566 90.9443 12.7448 90.708 12.3867C90.4788 12.0286 90.1852 11.7493 89.8271 11.5488C89.4762 11.3411 89.0573 11.2373 88.5703 11.2373C88.0833 11.2373 87.6608 11.3411 87.3027 11.5488C86.9518 11.7493 86.6618 12.0286 86.4326 12.3867C86.2035 12.7448 86.0352 13.1566 85.9277 13.6221C85.8203 14.0804 85.7666 14.5674 85.7666 15.083ZM103.599 9.38965H105.951V20.6904C105.951 21.736 105.729 22.624 105.285 23.3545C104.841 24.085 104.222 24.64 103.427 25.0195C102.632 25.4062 101.712 25.5996 100.666 25.5996C100.222 25.5996 99.7279 25.5352 99.1836 25.4062C98.6465 25.2773 98.1237 25.0697 97.6152 24.7832C97.1139 24.5039 96.695 24.1351 96.3584 23.6768L97.5723 22.1514C97.9876 22.6455 98.446 23.0072 98.9473 23.2363C99.4486 23.4655 99.9749 23.5801 100.526 23.5801C101.121 23.5801 101.626 23.4691 102.041 23.2471C102.464 23.0322 102.789 22.7135 103.019 22.291C103.248 21.8685 103.362 21.3529 103.362 20.7441V12.0215L103.599 9.38965ZM95.7031 15.3301V15.1045C95.7031 14.2236 95.8105 13.4215 96.0254 12.6982C96.2402 11.9678 96.5482 11.3411 96.9492 10.8184C97.3503 10.2884 97.8372 9.88379 98.4102 9.60449C98.9831 9.31803 99.6312 9.1748 100.354 9.1748C101.106 9.1748 101.747 9.31087 102.277 9.58301C102.814 9.85514 103.262 10.2454 103.62 10.7539C103.978 11.2552 104.257 11.8568 104.458 12.5586C104.666 13.2533 104.82 14.0267 104.92 14.8789V15.5986C104.827 16.4294 104.669 17.1885 104.447 17.876C104.225 18.5635 103.932 19.1579 103.566 19.6592C103.201 20.1605 102.75 20.5472 102.213 20.8193C101.683 21.0915 101.056 21.2275 100.333 21.2275C99.624 21.2275 98.9831 21.0807 98.4102 20.7871C97.8444 20.4935 97.3574 20.0817 96.9492 19.5518C96.5482 19.0218 96.2402 18.3988 96.0254 17.6826C95.8105 16.9593 95.7031 16.1751 95.7031 15.3301ZM98.292 15.1045V15.3301C98.292 15.86 98.3421 16.3542 98.4424 16.8125C98.5498 17.2708 98.7109 17.6755 98.9258 18.0264C99.1478 18.3701 99.4271 18.6423 99.7637 18.8428C100.107 19.0361 100.512 19.1328 100.978 19.1328C101.586 19.1328 102.084 19.0039 102.471 18.7461C102.865 18.4883 103.165 18.141 103.373 17.7041C103.588 17.2601 103.738 16.766 103.824 16.2217V14.2773C103.781 13.8548 103.692 13.4609 103.556 13.0957C103.427 12.7305 103.251 12.4118 103.029 12.1396C102.807 11.8604 102.528 11.6455 102.191 11.4951C101.855 11.3376 101.457 11.2588 100.999 11.2588C100.534 11.2588 100.129 11.359 99.7852 11.5596C99.4414 11.7601 99.1585 12.0358 98.9365 12.3867C98.7217 12.7376 98.5605 13.1458 98.4531 13.6113C98.3457 14.0768 98.292 14.5745 98.292 15.1045ZM108.143 15.3301V15.083C108.143 14.2451 108.264 13.4681 108.508 12.752C108.751 12.0286 109.102 11.402 109.561 10.8721C110.026 10.335 110.592 9.9196 111.258 9.62598C111.931 9.3252 112.69 9.1748 113.535 9.1748C114.387 9.1748 115.146 9.3252 115.812 9.62598C116.486 9.9196 117.055 10.335 117.521 10.8721C117.986 11.402 118.34 12.0286 118.584 12.752C118.827 13.4681 118.949 14.2451 118.949 15.083V15.3301C118.949 16.168 118.827 16.945 118.584 17.6611C118.34 18.3773 117.986 19.0039 117.521 19.541C117.055 20.071 116.489 20.4863 115.823 20.7871C115.157 21.0807 114.402 21.2275 113.557 21.2275C112.704 21.2275 111.942 21.0807 111.269 20.7871C110.603 20.4863 110.037 20.071 109.571 19.541C109.106 19.0039 108.751 18.3773 108.508 17.6611C108.264 16.945 108.143 16.168 108.143 15.3301ZM110.731 15.083V15.3301C110.731 15.8529 110.785 16.347 110.893 16.8125C111 17.278 111.168 17.6862 111.397 18.0371C111.627 18.388 111.92 18.6637 112.278 18.8643C112.636 19.0648 113.062 19.165 113.557 19.165C114.036 19.165 114.452 19.0648 114.803 18.8643C115.161 18.6637 115.454 18.388 115.684 18.0371C115.913 17.6862 116.081 17.278 116.188 16.8125C116.303 16.347 116.36 15.8529 116.36 15.3301V15.083C116.36 14.5674 116.303 14.0804 116.188 13.6221C116.081 13.1566 115.909 12.7448 115.673 12.3867C115.444 12.0286 115.15 11.7493 114.792 11.5488C114.441 11.3411 114.022 11.2373 113.535 11.2373C113.048 11.2373 112.626 11.3411 112.268 11.5488C111.917 11.7493 111.627 12.0286 111.397 12.3867C111.168 12.7448 111 13.1566 110.893 13.6221C110.785 14.0804 110.731 14.5674 110.731 15.083Z" fill="white"/>
<defs>
<filter id="filter0_d_410_3108" x="0" y="3.0127" width="12" height="28" filterUnits="userSpaceOnUse" color-interpolation-filters="sRGB">
<feFlood flood-opacity="0" result="BackgroundImageFix"/>
<feColorMatrix in="SourceAlpha" type="matrix" values="0 0 0 0 0 0 0 0 0 0 0 0 0 0 0 0 0 0 127 0" result="hardAlpha"/>
<feOffset dy="4"/>
<feGaussianBlur stdDeviation="2"/>
<feComposite in2="hardAlpha" operator="out"/>
<feColorMatrix type="matrix" values="0 0 0 0 0 0 0 0 0 0 0 0 0 0 0 0 0 0 0.25 0"/>
<feBlend mode="normal" in2="BackgroundImageFix" result="effect1_dropShadow_410_3108"/>
<feBlend mode="normal" in="SourceGraphic" in2="effect1_dropShadow_410_3108" result="shape"/>
</filter>
<filter id="filter1_d_410_3108" x="10" y="5.0127" width="12" height="24" filterUnits="userSpaceOnUse" color-interpolation-filters="sRGB">
<feFlood flood-opacity="0" result="BackgroundImageFix"/>
<feColorMatrix in="SourceAlpha" type="matrix" values="0 0 0 0 0 0 0 0 0 0 0 0 0 0 0 0 0 0 127 0" result="hardAlpha"/>
<feOffset dy="4"/>
<feGaussianBlur stdDeviation="2"/>
<feComposite in2="hardAlpha" operator="out"/>
<feColorMatrix type="matrix" values="0 0 0 0 0 0 0 0 0 0 0 0 0 0 0 0 0 0 0.25 0"/>
<feBlend mode="normal" in2="BackgroundImageFix" result="effect1_dropShadow_410_3108"/>
<feBlend mode="normal" in="SourceGraphic" in2="effect1_dropShadow_410_3108" result="shape"/>
</filter>
<filter id="filter2_d_410_3108" x="20" y="7.0127" width="12" height="20" filterUnits="userSpaceOnUse" color-interpolation-filters="sRGB">
<feFlood flood-opacity="0" result="BackgroundImageFix"/>
<feColorMatrix in="SourceAlpha" type="matrix" values="0 0 0 0 0 0 0 0 0 0 0 0 0 0 0 0 0 0 127 0" result="hardAlpha"/>
<feOffset dy="4"/>
<feGaussianBlur stdDeviation="2"/>
<feComposite in2="hardAlpha" operator="out"/>
<feColorMatrix type="matrix" values="0 0 0 0 0 0 0 0 0 0 0 0 0 0 0 0 0 0 0.25 0"/>
<feBlend mode="normal" in2="BackgroundImageFix" result="effect1_dropShadow_410_3108"/>
<feBlend mode="normal" in="SourceGraphic" in2="effect1_dropShadow_410_3108" result="shape"/>
</filter>
</defs>
</svg>
